<svg width="114" height="24" viewBox="0 0 114 24" fill="none" xmlns="http://www.w3.org/2000/svg">
<path d="M15 21V13C15 12.7348 14.8946 12.4804 14.7071 12.2929C14.5196 12.1054 14.2652 12 14 12H10C9.73478 12 9.48043 12.1054 9.29289 12.2929C9.10536 12.4804 9 12.7348 9 13V21" stroke="#C9A34D" stroke-width="2" stroke-linecap="round" stroke-linejoin="round"/>
<path d="M3 10.0005C2.99993 9.70955 3.06333 9.4221 3.18579 9.1582C3.30824 8.89429 3.4868 8.66028 3.709 8.47248L10.709 2.47248C11.07 2.16739 11.5274 2 12 2C12.4726 2 12.93 2.16739 13.291 2.47248L20.291 8.47248C20.5132 8.66028 20.6918 8.89429 20.8142 9.1582C20.9367 9.4221 21.0001 9.70955 21 10.0005V19.0005C21 19.5309 20.7893 20.0396 20.4142 20.4147C20.0391 20.7898 19.5304 21.0005 19 21.0005H5C4.46957 21.0005 3.96086 20.7898 3.58579 20.4147C3.21071 20.0396 3 19.5309 3 19.0005V10.0005Z" stroke="#C9A34D" stroke-width="2" stroke-linecap="round" stroke-linejoin="round"/>
<path d="M35.1997 19V16.98L42.6748 6.89014V6.75684H35.374V4.20361H46.4175V6.21338L38.9731 16.3135V16.4468H46.6226V19H35.1997ZM52.8057 19.2358C51.9854 19.2358 51.2881 19.0718 50.7139 18.7437C50.1465 18.4087 49.7158 17.9302 49.4219 17.3081C49.1348 16.6792 48.9912 15.9238 48.9912 15.042V7.82324H51.9854V14.3857C51.9854 15.1514 52.1494 15.7393 52.4775 16.1494C52.8057 16.5527 53.3149 16.7544 54.0054 16.7544C54.3608 16.7544 54.6787 16.6963 54.959 16.5801C55.2393 16.457 55.4751 16.2896 55.6665 16.0776C55.8579 15.8589 56.0015 15.5957 56.0972 15.2881C56.1997 14.9805 56.251 14.6421 56.251 14.2729V7.82324H59.2451V19H56.251V17.2363H56.1074C55.9365 17.6465 55.6938 18.002 55.3794 18.3027C55.0718 18.6035 54.7026 18.8359 54.272 19C53.8413 19.1572 53.3525 19.2358 52.8057 19.2358ZM61.8701 19V7.82324H64.8643V19H61.8701ZM63.3672 6.21338C62.916 6.21338 62.5264 6.05615 62.1982 5.7417C61.877 5.42041 61.7163 5.0376 61.7163 4.59326C61.7163 4.14209 61.877 3.75928 62.1982 3.44482C62.5264 3.12354 62.916 2.96289 63.3672 2.96289C63.8252 2.96289 64.2148 3.12354 64.5361 3.44482C64.8574 3.75928 65.0181 4.14209 65.0181 4.59326C65.0181 5.0376 64.8574 5.42041 64.5361 5.7417C64.2148 6.05615 63.8252 6.21338 63.3672 6.21338ZM67.5815 19V3.70117H70.5757V19H67.5815ZM77.3228 19.1948C76.3931 19.1948 75.5864 18.9624 74.9028 18.4976C74.2192 18.0327 73.6929 17.3696 73.3237 16.5083C72.9614 15.647 72.7803 14.6182 72.7803 13.4219V13.4014C72.7803 12.1982 72.9614 11.166 73.3237 10.3047C73.6929 9.44336 74.2158 8.78369 74.8926 8.32568C75.5693 7.86084 76.3794 7.62842 77.3228 7.62842C77.8354 7.62842 78.3105 7.71045 78.748 7.87451C79.1924 8.03857 79.5786 8.27441 79.9067 8.58203C80.2417 8.88281 80.5049 9.24512 80.6963 9.66895H80.8398V3.70117H83.834V19H80.8398V17.2056H80.6963C80.5049 17.6226 80.2451 17.978 79.917 18.272C79.5957 18.5659 79.2163 18.7949 78.7788 18.959C78.3413 19.1162 77.856 19.1948 77.3228 19.1948ZM78.3276 16.7134C78.8472 16.7134 79.2949 16.5835 79.6709 16.3237C80.0469 16.0571 80.3374 15.6777 80.5425 15.1855C80.7544 14.6865 80.8604 14.0986 80.8604 13.4219V13.4116C80.8604 12.728 80.7544 12.1401 80.5425 11.6479C80.3374 11.1558 80.0435 10.7764 79.6606 10.5098C79.2847 10.2432 78.8403 10.1099 78.3276 10.1099C77.8218 10.1099 77.3774 10.2432 76.9946 10.5098C76.6187 10.7695 76.3281 11.1455 76.123 11.6377C75.9248 12.1299 75.8257 12.7178 75.8257 13.4014V13.4219C75.8257 14.0986 75.9248 14.6865 76.123 15.1855C76.3281 15.6777 76.6187 16.0571 76.9946 16.3237C77.3706 16.5835 77.8149 16.7134 78.3276 16.7134ZM92.9805 19.3281C91.7158 19.3281 90.6187 19.1025 89.689 18.6514C88.7661 18.1934 88.0483 17.5542 87.5356 16.7339C87.0298 15.9067 86.7769 14.9463 86.7769 13.8525V4.20361H89.8735V13.5757C89.8735 14.2114 89.9932 14.7651 90.2324 15.2368C90.4785 15.7017 90.8306 16.064 91.2886 16.3237C91.7534 16.5767 92.3174 16.7031 92.9805 16.7031C93.6436 16.7031 94.2041 16.5767 94.6621 16.3237C95.127 16.064 95.479 15.7017 95.7183 15.2368C95.9575 14.7651 96.0771 14.2114 96.0771 13.5757V4.20361H99.1738V13.8525C99.1738 14.9463 98.9209 15.9033 98.415 16.7236C97.916 17.5439 97.2017 18.1831 96.272 18.6411C95.3491 19.0991 94.252 19.3281 92.9805 19.3281ZM102.055 22.6812V7.82324H105.049V9.63818H105.183C105.381 9.21436 105.641 8.85547 105.962 8.56152C106.29 8.26074 106.673 8.03174 107.11 7.87451C107.548 7.71045 108.03 7.62842 108.556 7.62842C109.493 7.62842 110.299 7.86084 110.976 8.32568C111.66 8.79053 112.183 9.45361 112.545 10.3149C112.914 11.1763 113.099 12.2051 113.099 13.4014V13.4219C113.099 14.625 112.917 15.6572 112.555 16.5186C112.193 17.3799 111.673 18.043 110.997 18.5078C110.32 18.9658 109.51 19.1948 108.566 19.1948C108.054 19.1948 107.575 19.1128 107.131 18.9487C106.687 18.7847 106.3 18.5522 105.972 18.2515C105.644 17.9507 105.381 17.5918 105.183 17.1748H105.049V22.6812H102.055ZM107.551 16.7134C108.064 16.7134 108.508 16.5801 108.884 16.3135C109.26 16.0469 109.547 15.6675 109.746 15.1753C109.951 14.6831 110.053 14.0986 110.053 13.4219V13.4014C110.053 12.7178 109.951 12.1299 109.746 11.6377C109.547 11.1455 109.26 10.7695 108.884 10.5098C108.508 10.2432 108.064 10.1099 107.551 10.1099C107.039 10.1099 106.591 10.2432 106.208 10.5098C105.832 10.7695 105.538 11.1455 105.326 11.6377C105.121 12.1299 105.019 12.7178 105.019 13.4014V13.4219C105.019 14.0986 105.121 14.6831 105.326 15.1753C105.538 15.6675 105.832 16.0469 106.208 16.3135C106.591 16.5801 107.039 16.7134 107.551 16.7134Z" fill="white"/>
</svg>
